<svg width="1119" height="693" viewBox="0 0 1119 693" fill="none" xmlns="http://www.w3.org/2000/svg">
<g clip-path="url(#clip0_145_337)">
<path d="M543.634 3.45537C543.634 3.52779 543.623 3.6027 543.684 3.65894C543.695 3.66944 543.768 3.70362 543.75 3.6756C543.741 3.65999 543.698 3.62218 543.681 3.61545C543.659 3.60693 543.677 3.57384 543.659 3.55715C543.643 3.54211 543.624 3.52479 543.603 3.51366C543.56 3.49095 543.551 3.44627 543.544 3.4054" stroke="white" stroke-width="8" stroke-linecap="round"/>
<path d="M535.114 9.75139L532.353 6.77167C527.594 10.7716 525.172 13.8021 521.311 20.819L525.452 22.5217C528.155 16.496 530.219 13.648 535.114 9.75139Z" fill="white"/>
<path d="M518.09 28.9068L522.231 30.1838L517.17 45.9338L512.568 44.6568L518.09 28.9068Z" fill="white"/>
<path d="M514.409 54.0216L510.268 53.1703L505.206 68.9203L509.807 70.1973L514.409 54.0216Z" fill="white"/>
<path d="M507.047 78.2851L502.906 77.0081L497.385 92.3324L501.526 94.0351L507.047 78.2851Z" fill="white"/>
<path d="M498.305 102.123L491.403 117.022L487.722 115.319L494.567 100.586L498.305 102.123Z" fill="white"/>
<path d="M487.722 125.11L487.645 125.263C484.732 131.045 483.075 134.334 479.44 139.582L476.219 137.88C479.733 131.995 484.041 123.407 484.041 123.407L487.722 125.11Z" fill="white"/>
<path d="M471.158 145.116L474.839 147.67C470.327 153.605 467.907 156.416 463.796 160.441L461.035 157.461C465.929 152.769 468.132 150.063 471.158 145.116Z" fill="white"/>
<path d="M438.95 168.954C439.044 170.53 439.238 171.37 439.87 172.785C446.838 171.168 450.442 169.761 456.434 166.4L453.673 162.995C448.623 166.335 445.538 167.841 438.95 168.954Z" fill="white"/>
<path d="M429.287 170.657L429.747 174.062C421.659 174.639 417.956 175.263 413.183 177.042L411.803 173.211C419.085 171.283 422.913 170.717 429.287 170.657Z" fill="white"/>
<path d="M405.362 180.447C404.393 179.203 403.915 178.448 403.061 177.042C397.405 180.89 394.304 183.299 388.797 187.684L391.558 190.664C396.672 186.155 399.593 183.728 405.362 180.447Z" fill="white"/>
<path d="M381.896 193.643L385.116 196.623C381.355 200.369 379.211 203.468 376.374 209.393C374.959 208.932 374.04 208.65 372.233 208.116C374.556 203.046 376.694 199.871 381.896 193.643Z" fill="white"/>
<path d="M371.773 217.907L375.914 217.055C379.041 223.239 381.128 225.734 385.576 228.549C384.468 229.914 383.864 230.658 382.816 231.954C376.403 226.429 373.983 223.353 371.773 217.907Z" fill="white"/>
<path d="M392.938 233.657L390.638 237.062C396.523 239.25 399.734 241.224 405.361 245.576L408.122 242.17C401.761 237.907 398.436 236.039 392.938 233.657Z" fill="white"/>
<path d="M415.484 248.13C414.427 249.358 413.816 250.003 412.723 251.109C417.593 255.289 420.207 257.908 424.686 263.028C425.915 261.823 426.521 261.168 427.447 260.049C422.964 255.26 420.341 252.65 415.484 248.13Z" fill="white"/>
<path d="M433.428 266.859C432.045 267.867 431.352 268.424 430.208 269.414C434.465 274.449 436.673 277.34 440.33 282.609C441.099 282.14 441.734 281.767 444.011 280.481C439.517 274.551 437.199 271.567 433.428 266.859Z" fill="white"/>
<path d="M449.072 287.718C452.956 293.044 454.992 296.106 458.275 301.765L454.594 303.468C451.366 298.114 449.313 295.172 445.391 289.846L449.072 287.718Z" fill="white"/>
<path d="M459.195 311.13L462.876 309.001C466.445 314.551 468.352 317.723 471.618 323.474L467.937 325.603C464.594 319.695 462.684 316.515 459.195 311.13Z" fill="white"/>
<path d="M472.078 332.839L476.219 331.136L484.501 346.035L480.82 347.738L472.078 332.839Z" fill="white"/>
<path d="M484.501 355.4C486.21 354.607 487.111 354.243 488.642 353.697C491.512 359.181 493.259 362.381 496.464 368.17L492.323 369.873C489.474 364.067 487.778 360.885 484.501 355.4Z" fill="white"/>
<path d="M496.464 377.535L500.145 375.832C502.925 382.29 504.616 385.552 507.967 390.731L503.826 392.434C500.657 387.118 498.905 383.873 496.464 377.535Z" fill="white"/>
<path d="M507.967 400.522L511.648 398.393C514.771 404.039 516.815 407.105 520.85 412.441L517.629 414.569C513.509 409.11 511.375 406.035 507.967 400.522Z" fill="white"/>
<path d="M526.372 419.251L523.151 421.805C526.983 426.791 529.689 429.478 535.114 434.15L537.875 431.17C532.968 426.938 530.461 424.317 526.372 419.251Z" fill="white"/>
<path d="M544.776 437.13C543.533 438.195 542.934 438.851 542.016 440.109C546.356 443.611 549.543 445.825 555.819 449.9L558.12 446.92C553.122 443.894 550.255 441.801 544.776 437.13Z" fill="white"/>
<path d="M581.586 459.265L579.745 462.67C571.92 459.254 568.432 457.491 563.641 454.582C564.628 453.504 565.124 452.844 565.942 451.603C571.807 454.808 575.224 456.495 581.586 459.265Z" fill="white"/>
<path d="M589.868 462.245C589.236 463.698 588.832 464.441 588.027 465.65C594.304 468.093 598.078 469.383 605.051 471.609L606.432 468.204C599.681 465.955 596.023 464.658 589.868 462.245Z" fill="white"/>
<path d="M615.174 470.758C614.751 472.478 614.558 473.163 614.254 474.164C620.668 476.109 624.181 477.452 630.358 480.123C631.329 478.306 631.787 477.453 632.198 476.718C625.932 473.889 621.844 472.371 615.174 470.758Z" fill="white"/>
<path d="M640.02 481.4C639.274 482.606 638.804 483.267 637.719 484.38C642.322 487.837 646.34 489.417 654.284 492.042C654.751 490.576 654.961 489.74 655.204 488.211C648.489 486.466 645.117 485.031 640.02 481.4Z" fill="white"/>
<path d="M663.946 489.913C663.702 491.467 663.491 492.301 663.026 493.745C669.73 494.903 673.69 495.447 680.97 496.299C681.168 494.917 681.271 494.1 681.43 492.468C674.516 491.92 670.683 491.381 663.946 489.913Z" fill="white"/>
<path d="M690.633 493.745C697.57 494.845 701.544 495.435 708.577 496.299C708.446 497.376 708.169 498.195 707.694 499.595L707.657 499.704C699.907 498.771 696.148 498.207 690.173 497.15C690.355 496.103 690.455 495.389 690.633 493.745Z" fill="white"/>
<path d="M717.319 497.15L716.859 500.981L734.344 503.109L734.804 499.704L717.319 497.15Z" fill="white"/>
<path d="M744.466 500.981C744.154 502.361 743.951 503.104 743.546 504.387C750.464 505.625 754.409 506.141 761.491 506.941C761.51 506.443 761.638 505.679 761.951 503.535C755.366 502.754 751.561 502.217 744.466 500.981Z" fill="white"/>
<path d="M787.257 513.326C786.217 514.9 785.794 515.697 784.956 516.731L769.312 509.069L769.624 508.626C770.537 507.323 771.076 506.556 771.613 505.664C777.807 508.831 781.244 510.533 787.257 513.326Z" fill="white"/>
<path d="M811.643 523.116C805.612 520.861 802.105 519.48 795.539 516.731L793.698 520.137C799.481 522.727 803.037 524.223 809.803 526.947L811.643 523.116Z" fill="white"/>
<path d="M820.385 526.096C826.659 528.344 830.314 529.478 836.949 531.204C836.59 532.704 836.284 533.544 835.569 535.035C828.757 533.186 825.084 532.018 819.005 529.501L820.385 526.096Z" fill="white"/>
<path d="M846.152 533.332C851.715 534.969 855.232 535.754 863.176 537.163L862.256 540.995C854.975 539.733 851.11 538.945 845.231 537.163L845.266 537.032L845.267 537.028C845.716 535.321 845.979 534.324 846.152 533.332Z" fill="white"/>
<path d="M872.378 538.441L871.918 542.272C878.165 542.657 882.333 543.306 889.403 543.974L889.863 540.143C883.881 539.392 879.814 539.043 872.378 538.441Z" fill="white"/>
<path d="M899.065 541.846C906.049 542.825 909.867 543.59 916.549 545.251C916.237 546.406 916.037 547.169 915.629 548.657C908.941 546.855 905.114 546.109 898.145 545.251C898.618 543.674 898.868 542.822 899.065 541.846Z" fill="white"/>
<path d="M925.752 547.38L924.371 550.785C930.721 553.079 934.365 554.277 940.935 556.319L942.316 552.913C936.049 550.884 932.46 549.7 925.752 547.38Z" fill="white"/>
<path d="M968.082 560.15L966.702 563.981L965.791 563.745C959.34 562.07 955.448 561.06 949.678 558.873L951.058 555.468C957.472 557.661 961.254 558.6 968.082 560.15Z" fill="white"/>
<path d="M976.825 562.278L975.904 565.684C982.631 567.358 986.478 568.026 993.389 569.089L994.309 565.684C987.49 564.654 983.662 563.958 976.825 562.278Z" fill="white"/>
<path d="M1003.51 566.961L1002.59 570.792C1009 571.952 1012.88 572.421 1020.08 573.346L1021 569.515C1014.28 568.503 1010.39 568.094 1003.51 566.961Z" fill="white"/>
<path d="M1030.2 570.792L1029.28 574.623C1036.01 575.923 1039.85 576.447 1046.76 577.177L1047.68 573.346C1040.54 572.344 1036.71 571.852 1030.2 570.792Z" fill="white"/>
<path d="M1056.88 575.049C1064.15 576.072 1067.95 576.735 1074.37 578.028L1072.99 581.859C1066.2 580.357 1062.47 579.666 1055.96 578.454L1056.88 575.049Z" fill="white"/>
<path d="M1083.57 579.731C1090.53 581.098 1094.39 581.957 1101.06 583.988L1099.68 587.393C1093.28 585.628 1089.57 584.69 1082.65 583.136L1083.57 579.731Z" fill="white"/>
<path d="M1109.8 586.542C1120.28 593.291 1120.94 596.307 1108.88 599.738L1107.96 595.907C1114.69 594.896 1115.34 593.796 1107.96 590.373L1109.8 586.542Z" fill="white"/>
<path d="M1099.21 596.758V600.589C1092.46 600.894 1088.64 600.99 1081.73 601.015V597.184C1088.61 597.165 1092.44 597.06 1099.21 596.758Z" fill="white"/>
<path d="M1072.07 597.184V601.015C1065.11 600.946 1061.26 600.879 1054.58 600.589V596.758C1061.58 597.005 1065.37 597.054 1072.07 597.184Z" fill="white"/>
<path d="M1044.92 596.758V600.164C1038.04 600.198 1034.21 600.112 1027.44 599.738V596.332C1034.27 596.586 1038.09 596.671 1044.92 596.758Z" fill="white"/>
<path d="M1018.23 595.907V599.312C1011.18 599.236 1007.29 599.167 1000.29 598.886V595.481C1006.78 595.668 1010.58 595.766 1018.23 595.907Z" fill="white"/>
<path d="M991.088 595.055V598.887L973.604 598.461V594.63L991.088 595.055Z" fill="white"/>
<path d="M963.941 594.63V598.035H946.917V594.63H963.941Z" fill="white"/>
<path d="M919.77 595.055V598.461L937.255 598.035V594.63L919.77 595.055Z" fill="white"/>
<path d="M910.108 595.481V599.312L892.623 600.164L892.163 596.758L910.108 595.481Z" fill="white"/>
<path d="M865.477 601.015L866.397 604.846L883.421 601.441L882.961 598.035L865.477 601.015Z" fill="white"/>
<path d="M856.274 602.718L857.194 606.549L840.63 610.805L839.25 606.974L856.274 602.718Z" fill="white"/>
<path d="M830.048 609.954L831.428 613.359L815.784 619.319L813.944 615.914L830.048 609.954Z" fill="white"/>
<path d="M805.201 619.745L807.042 623.15C800.883 625.977 797.328 627.431 790.938 629.961L789.097 626.555L805.201 619.745Z" fill="white"/>
<path d="M764.711 636.346L766.552 639.751C773.094 637.583 776.702 636.291 782.656 633.366L780.815 629.961C775.408 632.327 771.699 633.751 764.711 636.346Z" fill="white"/>
<path d="M755.969 639.751L757.81 643.582C751.436 646.064 747.794 647.344 741.246 649.542L739.865 645.711C746.193 643.5 749.727 642.219 755.969 639.751Z" fill="white"/>
<path d="M731.123 649.116L732.503 652.522C726.251 654.927 722.592 656.219 715.939 658.481L714.559 654.65C721.466 652.491 725.119 651.279 731.123 649.116Z" fill="white"/>
<path d="M705.816 657.63L707.197 661.461C700.684 663.516 696.955 664.537 690.173 666.143L688.792 662.312C696.129 660.672 699.805 659.644 705.816 657.63Z" fill="white"/>
<path d="M680.05 664.441L680.97 668.272C674.243 669.76 670.425 670.523 663.486 671.677L663.026 667.846C669.708 666.71 673.43 665.958 680.05 664.441Z" fill="white"/>
<path d="M636.339 672.528L636.799 676.36C643.63 675.396 647.458 674.75 654.284 673.38L653.823 669.549C647.11 670.838 643.29 671.497 636.339 672.528Z" fill="white"/>
<path d="M627.137 673.805L627.597 677.637C620.809 678.592 616.978 679.05 610.113 679.765L609.653 675.934C616.516 675.208 620.347 674.747 627.137 673.805Z" fill="white"/>
<path d="M600.45 676.785L600.91 680.616C593.878 681.428 589.951 681.808 582.966 682.319L582.506 678.488C589.14 677.963 593.042 677.6 600.45 676.785Z" fill="white"/>
<path d="M573.764 679.339V683.17C566.761 683.964 562.83 684.251 555.819 684.447V680.616C562.738 680.283 566.772 680.128 573.764 679.339Z" fill="white"/>
<path d="M546.617 681.468V685.299C539.789 685.772 535.96 685.964 529.132 686.15V682.319C535.988 682.19 539.821 682.038 546.617 681.468Z" fill="white"/>
<path d="M519.47 683.17V687.001C512.644 687.505 508.816 687.702 501.986 687.853V684.022C508.812 683.815 512.639 683.621 519.47 683.17Z" fill="white"/>
<path d="M492.323 684.447V688.278C485.587 688.733 481.757 688.819 474.839 688.704V684.873C481.662 684.825 485.491 684.725 492.323 684.447Z" fill="white"/>
<path d="M465.636 685.299V689.13C458.811 689.606 454.983 689.714 448.152 689.555V685.724C455.196 685.733 459.011 685.627 465.636 685.299Z" fill="white"/>
<path d="M438.49 686.15V689.981C431.494 690.097 427.653 690.105 421.005 689.981V686.15C427.973 686.284 431.799 686.28 438.49 686.15Z" fill="white"/>
<path d="M411.343 686.576V690.407C404.385 690.548 400.55 690.555 393.859 690.407V686.576C400.426 686.777 404.243 686.785 411.343 686.576Z" fill="white"/>
<path d="M384.656 686.576V690.832C377.465 690.959 373.523 690.969 366.712 690.832V686.576C373.799 686.748 377.731 686.754 384.656 686.576Z" fill="white"/>
<path d="M357.509 687.001V690.832C350.502 690.948 346.572 690.955 339.565 690.832V687.001C346.572 687.144 350.502 687.15 357.509 687.001Z" fill="white"/>
<path d="M330.363 687.427V691.258C323.633 691.398 319.817 691.416 312.878 691.258V687.427C320.081 687.522 323.922 687.524 330.363 687.427Z" fill="white"/>
<path d="M303.216 687.853V691.684C296.388 691.775 292.56 691.792 285.731 691.684V687.853C292.56 687.974 296.388 687.951 303.216 687.853Z" fill="white"/>
<path d="M276.529 687.853V691.684C269.555 691.775 265.628 691.779 258.585 691.684V687.853C265.594 688.027 269.521 688.019 276.529 687.853Z" fill="white"/>
<path d="M249.382 687.427V691.258L231.438 690.832V687.001L249.382 687.427Z" fill="white"/>
<path d="M222.236 687.001V690.832L204.291 690.407V686.576L222.236 687.001Z" fill="white"/>
<path d="M195.089 686.15V690.407L177.144 689.981V685.724L195.089 686.15Z" fill="white"/>
<path d="M167.942 685.724V689.555L149.998 689.13V685.299L167.942 685.724Z" fill="white"/>
<path d="M141.255 684.873V688.704L123.311 688.278V684.447L141.255 684.873Z" fill="white"/>
<path d="M114.109 684.022V687.853L96.1641 687.427V683.596L114.109 684.022Z" fill="white"/>
<path d="M69.0173 682.745V686.576L86.9618 687.001V683.17L69.0173 682.745Z" fill="white"/>
<path d="M59.8149 682.319V686.15L41.8704 685.299V681.468L59.8149 682.319Z" fill="white"/>
<path d="M32.6682 685.299V681.042L15.1838 680.616V684.873L32.6682 685.299Z" fill="white"/>
<path d="M3.7708 682.369C3.7708 682.442 3.76003 682.516 3.82074 682.572C3.83207 682.583 3.90494 682.617 3.88766 682.589C3.87803 682.574 3.83518 682.536 3.81774 682.529C3.79567 682.52 3.81378 682.488 3.79577 682.471C3.77953 682.455 3.76085 682.438 3.73984 682.427C3.69694 682.404 3.68721 682.36 3.68091 682.319" stroke="white" stroke-width="8" stroke-linecap="round"/>
</g>
<defs>
<clipPath id="clip0_145_337">
<rect width="1119" height="693" fill="white"/>
</clipPath>
</defs>
</svg>
